 <svg xmlns="http://www.w3.org/2000/svg" x="0px" y="0px"
width="50" height="50"
viewBox="0 0 226 226"
style=" fill:#000000;"><defs><linearGradient x1="113" y1="45.58138" x2="113" y2="181.11075" gradientUnits="userSpaceOnUse" id="color-1_WMvhDPZBJ9X2_gr1"><stop offset="0" stop-color="#95facc"></stop><stop offset="1" stop-color="#6ec8ff"></stop></linearGradient><linearGradient x1="113.00353" y1="-11.36003" x2="113.00353" y2="219.86269" gradientUnits="userSpaceOnUse" id="color-2_WMvhDPZBJ9X2_gr2"><stop offset="0" stop-color="#2af598"></stop><stop offset="1" stop-color="#009efd"></stop></linearGradient></defs><g fill="none" fill-rule="nonzero" stroke="none" stroke-width="1" stroke-linecap="butt" stroke-linejoin="miter" stroke-miterlimit="10" stroke-dasharray="" stroke-dashoffset="0" font-family="none" font-weight="none" font-size="none" text-anchor="none" style="mix-blend-mode: normal"><path d="M0,226v-226h226v226z" fill="none"></path><g><path d="M113,180.09375c-37.05341,0 -67.09375,-30.04034 -67.09375,-67.09375c0,-37.05341 30.04034,-67.09375 67.09375,-67.09375c37.05341,0 67.09375,30.04034 67.09375,67.09375c-0.04237,37.03928 -30.05447,67.05138 -67.09375,67.09375zM113,52.96875c-33.15491,0 -60.03125,26.87634 -60.03125,60.03125c0,33.15491 26.87634,60.03125 60.03125,60.03125c33.15491,0 60.03125,-26.87634 60.03125,-60.03125c-0.03884,-33.13725 -26.894,-59.99241 -60.03125,-60.03125z" fill="url(#color-1_WMvhDPZBJ9X2_gr1)"></path><path d="M218.75388,106.80619c-0.38137,-6.38097 -5.15209,-11.639 -11.4695,-12.63834c-3.59128,-0.60738 -7.87116,-1.30303 -11.40241,-1.87509l-0.81572,-0.12712c-2.2035,-0.34606 -4.01856,-1.91747 -4.67891,-4.04681c-1.32775,-4.22338 -3.01569,-8.32316 -5.03909,-12.2605c-1.03819,-1.97397 -0.85809,-4.36463 0.46259,-6.16203c2.11875,-3.02275 4.89784,-6.84709 7.18609,-10.01463c3.78197,-5.20506 3.42531,-12.34525 -0.85456,-17.14775c-2.75084,-3.051 -5.66766,-5.95369 -8.73278,-8.68687c-4.78131,-4.24809 -11.87559,-4.59416 -17.04888,-0.83337c-3.19931,2.27766 -7.0625,5.05322 -10.06759,7.22847c-1.80094,1.31363 -4.19513,1.48666 -6.16556,0.44494c-3.92675,-2.04106 -8.01947,-3.74666 -12.23225,-5.09913c-2.12934,-0.66387 -3.69369,-2.48247 -4.03269,-4.68597c-0.6215,-3.64778 -1.37719,-8.3055 -1.99869,-12.16162c-1.00641,-6.34919 -6.29622,-11.14109 -12.7125,-11.51894c-4.10331,-0.21188 -8.21722,-0.20128 -12.32053,0.03178c-6.38803,0.37078 -11.65666,5.1415 -12.65953,11.46244c-0.60738,3.59128 -1.30303,7.87116 -1.87509,11.40241l-0.13066,0.81572c-0.34606,2.19997 -1.91394,4.01503 -4.04328,4.67537c-4.22338,1.33128 -8.32316,3.01922 -12.2605,5.04263c-1.97397,1.04172 -4.36816,0.86163 -6.16556,-0.46259c-3.01922,-2.11875 -6.84356,-4.90138 -10.01463,-7.18609c-5.20506,-3.7855 -12.34172,-3.42884 -17.14422,0.85456c-3.05453,2.75084 -5.95369,5.66412 -8.68687,8.73278c-4.24103,4.78131 -4.59063,11.87206 -0.83691,17.04534c2.28119,3.20284 5.05322,7.0625 7.232,10.06759c1.31362,1.80447 1.48312,4.19513 0.44141,6.16909c-2.04106,3.92675 -3.74666,8.01947 -5.09913,12.23225c-0.66388,2.12581 -2.47894,3.69016 -4.68244,4.02916c-3.65131,0.62503 -8.3055,1.37719 -12.16869,2.00222c-6.35625,1.00641 -11.14816,6.30681 -11.51894,12.73016c-0.21541,4.10331 -0.20481,8.21722 0.03178,12.32053c0.38491,6.38097 5.15209,11.639 11.46597,12.64188c3.59128,0.60737 7.87116,1.2995 11.40241,1.87509l0.82984,0.13066c2.19997,0.34959 4.01503,1.91747 4.67538,4.04681c1.33128,4.22337 3.01569,8.32316 5.03909,12.2605c1.03819,1.97397 0.85809,4.36462 -0.46259,6.16203c-2.11875,3.02275 -4.89784,6.84709 -7.18609,10.01816c-3.78197,5.20506 -3.42531,12.34172 0.85456,17.14422c2.75084,3.051 5.66766,5.95016 8.73278,8.68687c4.78484,4.24103 11.87206,4.58709 17.04888,0.83691c3.19931,-2.28119 7.0625,-5.05322 10.06759,-7.232c1.80094,-1.31362 4.19513,-1.48313 6.16556,-0.44494c3.92675,2.04459 8.01947,3.75019 12.23578,5.10266c2.12581,0.66388 3.69016,2.48247 4.02916,4.68244c0.6215,3.65131 1.37719,8.3055 1.99869,12.16869c1.00641,6.35625 6.30681,11.15169 12.73369,11.51894c1.98103,0.10241 3.94794,0.15184 5.90778,0.15184c2.16466,0 4.30106,-0.06356 6.40922,-0.18716c6.38097,-0.38137 11.639,-5.14856 12.64188,-11.46244c0.60737,-3.58775 1.30303,-7.86763 1.87509,-11.39888l0.13419,-0.82984c0.34959,-2.19997 1.91394,-4.01503 4.04328,-4.67538c4.22337,-1.33128 8.32316,-3.01922 12.2605,-5.04262c1.97397,-1.03466 4.36816,-0.85456 6.16556,0.46259c3.01922,2.13641 6.84356,4.90138 10.01462,7.18963c5.20506,3.78197 12.34172,3.42531 17.14422,-0.85456c3.051,-2.75084 5.95369,-5.66766 8.68687,-8.73631c4.24103,-4.78131 4.59063,-11.87206 0.83691,-17.04534c-2.28119,-3.20284 -5.05322,-7.0625 -7.232,-10.06759c-1.31363,-1.80447 -1.48313,-4.19866 -0.44141,-6.16909c2.04106,-3.92675 3.74666,-8.01947 5.09912,-12.23225c0.66388,-2.12934 2.48247,-3.69369 4.68597,-4.02916c3.64778,-0.62503 8.3055,-1.37719 12.16516,-2.00222c6.35625,-1.00641 11.15169,-6.30681 11.51894,-12.73016c0.21187,-4.10331 0.19775,-8.21722 -0.04238,-12.32053zM210.95334,118.69238c-0.1695,2.74731 -2.22469,5.00731 -4.94375,5.43106c-3.88438,0.6215 -8.57034,1.38072 -12.204,2.00222c-5.11325,0.81219 -9.32603,4.45291 -10.86919,9.39666c-1.21475,3.78197 -2.75084,7.45447 -4.59062,10.97512c-2.42597,4.60122 -2.02694,10.18412 1.03113,14.39337c2.17172,3.00156 4.94375,6.8365 7.21434,10.04288c1.61025,2.2035 1.47253,5.22978 -0.33194,7.27438c-2.52838,2.83559 -5.20859,5.52994 -8.03006,8.07597c-2.05872,1.81859 -5.10619,1.96691 -7.33087,0.35313c-3.17812,-2.30238 -7.03778,-5.08147 -10.04641,-7.20728c-4.18806,-3.051 -9.74625,-3.46062 -14.33687,-1.05937c-3.53125,1.81506 -7.21081,3.32997 -10.99631,4.52c-4.96847,1.53963 -8.63391,5.77006 -9.44609,10.90803l-0.13419,0.82631c-0.56853,3.51359 -1.26066,7.76875 -1.86803,11.37416c-0.42022,2.69434 -2.65903,4.73541 -5.38162,4.90844c-3.79256,0.21541 -7.59572,0.226 -11.39181,0.03178c-2.74731,-0.1695 -5.00378,-2.22469 -5.42753,-4.94375c-0.62503,-3.88438 -1.38425,-8.56681 -2.00575,-12.20047c-0.80866,-5.11678 -4.45291,-9.32956 -9.39666,-10.87272c-3.78197,-1.21475 -7.45447,-2.75084 -10.97513,-4.59062c-4.60122,-2.42597 -10.18412,-2.02341 -14.39338,1.03113c-3.00156,2.16819 -6.83297,4.94375 -10.04287,7.21434c-2.2035,1.61025 -5.22625,1.47253 -7.27437,-0.33194c-2.83559,-2.53191 -5.52994,-5.21213 -8.07597,-8.03359c-1.82212,-2.05872 -1.96691,-5.10266 -0.35312,-7.32734c2.30237,-3.17812 5.08147,-7.03778 7.20728,-10.04994c3.05453,-4.18453 3.46416,-9.74272 1.05938,-14.33334c-1.81506,-3.53125 -3.32644,-7.21081 -4.52,-10.99631c-1.53963,-4.972 -5.77006,-8.63391 -10.90803,-9.44963l-0.82631,-0.13419c-3.53125,-0.56853 -7.76875,-1.25713 -11.37416,-1.86803c-2.69434,-0.42022 -4.73541,-2.65903 -4.90844,-5.38162c-0.21541,-3.79256 -0.226,-7.59572 -0.03178,-11.38828c0.1695,-2.74731 2.22469,-5.00378 4.94375,-5.43106c3.88437,-0.62503 8.56681,-1.38072 12.20047,-2.00575c5.11325,-0.79806 9.33309,-4.42819 10.88684,-9.36487c1.21475,-3.78197 2.75084,-7.45094 4.59063,-10.97159c2.42597,-4.60475 2.02341,-10.18766 -1.03466,-14.39691c-2.16819,-2.99803 -4.94375,-6.83297 -7.21434,-10.04287c-1.60319,-2.20703 -1.45841,-5.23331 0.35312,-7.27437c2.52837,-2.83559 5.20859,-5.52994 8.03006,-8.07244c2.05519,-1.82566 5.10619,-1.97044 7.32734,-0.35312c3.17812,2.30237 7.03778,5.08147 10.04994,7.20728c4.18453,3.05453 9.74272,3.46769 14.33334,1.05938c3.53125,-1.81506 7.21081,-3.32644 10.99984,-4.51647c4.96141,-1.55375 8.61272,-5.78772 9.41784,-10.92216l0.13419,-0.82984c0.56853,-3.51006 1.25713,-7.76875 1.86803,-11.37063c0.42022,-2.69434 2.65903,-4.73541 5.38163,-4.90844c3.79256,-0.21541 7.59572,-0.226 11.38828,-0.03178c2.74731,0.1695 5.00731,2.22469 5.43106,4.94375c0.62503,3.88437 1.38072,8.57034 2.00575,12.204c0.80513,5.11678 4.44231,9.33309 9.38606,10.87625c3.78197,1.21475 7.45094,2.75084 10.97159,4.59062c4.60475,2.42244 10.18413,2.02341 14.39691,-1.03112c3.00156,-2.17172 6.83297,-4.94375 10.04288,-7.21434c2.2035,-1.61025 5.22625,-1.47253 7.27438,0.33194c2.83206,2.53191 5.52641,5.21213 8.07244,8.03006c1.82566,2.05872 1.97044,5.10619 0.35313,7.33087c-2.30237,3.17813 -5.08147,7.03778 -7.20728,10.04641c-3.051,4.18806 -3.46416,9.74625 -1.05937,14.33687c1.82566,3.52066 3.34409,7.18963 4.54472,10.96806c1.53609,4.972 5.75594,8.63744 10.89391,9.46375l0.82984,0.13066c3.51006,0.56853 7.76875,1.26066 11.37416,1.86803c2.69434,0.42375 4.73188,2.65903 4.90844,5.38163c0.21541,3.78903 0.22247,7.58866 0.02825,11.37769zM87.75156,87.45847l-21.93259,20.36472c-1.43722,1.33481 -2.25647,3.2205 -2.25647,5.17681c0,1.95631 0.81925,3.842 2.25647,5.17681l21.93259,20.36472l4.80603,-5.17681l-21.93259,-20.36472l21.93259,-20.36472zM138.24844,87.45847l-4.80603,5.17681l21.93259,20.36472l-21.93259,20.36472l4.80603,5.17681l21.93259,-20.36472c1.43722,-1.33481 2.25647,-3.2205 2.25647,-5.17681c0,-1.95631 -0.81925,-3.842 -2.25647,-5.17681zM97.31772,148.89163l6.64934,2.37653l26.48438,-74.15625l-6.64934,-2.37653z" fill="url(#color-2_WMvhDPZBJ9X2_gr2)"></path></g></g></svg>
                           