 <svg xmlns="http://www.w3.org/2000/svg" x="0px" y="0px"
width="96" height="96"
viewBox="0 0 172 172"
style=" fill:#000000;"><defs><linearGradient x1="135.88269" y1="110.67394" x2="135.88269" y2="122.25169" gradientUnits="userSpaceOnUse" id="color-1_bOBxRlSTr76T_gr1"><stop offset="0" stop-color="#95facc"></stop><stop offset="1" stop-color="#6ec8ff"></stop></linearGradient><linearGradient x1="86" y1="25.21681" x2="86" y2="143.91294" gradientUnits="userSpaceOnUse" id="color-2_bOBxRlSTr76T_gr2"><stop offset="0" stop-color="#2af598"></stop><stop offset="1" stop-color="#009efd"></stop></linearGradient><linearGradient x1="127.82019" y1="25.21681" x2="127.82019" y2="143.91294" gradientUnits="userSpaceOnUse" id="color-3_bOBxRlSTr76T_gr3"><stop offset="0" stop-color="#2af598"></stop><stop offset="1" stop-color="#009efd"></stop></linearGradient><linearGradient x1="85.78231" y1="56.32194" x2="85.78231" y2="85.39263" gradientUnits="userSpaceOnUse" id="color-4_bOBxRlSTr76T_gr4"><stop offset="0" stop-color="#95facc"></stop><stop offset="1" stop-color="#6ec8ff"></stop></linearGradient></defs><g fill="none" fill-rule="nonzero" stroke="none" stroke-width="1" stroke-linecap="butt" stroke-linejoin="miter" stroke-miterlimit="10" stroke-dasharray="" stroke-dashoffset="0" font-family="none" font-weight="none" font-size="none" text-anchor="none" style="mix-blend-mode: normal"><path d="M0,172v-172h172v172z" fill="none"></path><g><path d="M141.86775,116.34188l-8.32587,-7.94694c-1.677,-1.60175 -4.45588,-0.41119 -4.45588,1.90812v15.89388c0,2.31931 2.77887,3.50987 4.45588,1.90812l8.32587,-7.94694c1.08575,-1.04006 1.08575,-2.77619 0,-3.81625z" fill="url(#color-1_bOBxRlSTr76T_gr1)"></path><path d="M139.75,91.90444v-35.03156c0,-6.16781 -5.01756,-11.18537 -11.18537,-11.18537h-4.93963v-10.25281c0,-6.17588 -5.02294,-11.19881 -11.19881,-11.19881h-85.10237c-6.17588,0 -11.19881,5.02294 -11.19881,11.19881v63.82813c0,6.17319 5.02294,11.19612 11.19881,11.19612h4.92619v10.04319c0,6.16781 5.01756,11.18537 11.18538,11.18537h56.60144c4.91275,9.53256 14.835,16.07663 26.27569,16.07663c16.29969,0 29.5625,-13.26281 29.5625,-29.5625c0,-11.4595 -6.56825,-21.39519 -16.125,-26.29719zM126.3125,88.63913c-3.68725,0 -7.20788,0.7095 -10.46512,1.94844l-7.04662,-5.96088l25.57425,-21.63975v26.79975c-2.56656,-0.731 -5.26481,-1.14756 -8.0625,-1.14756zM134.289,56.01825l-44.5265,37.67875c-2.17956,1.849 -5.34275,1.849 -7.52231,0l-44.52919,-37.67875c0.41656,-2.79769 2.81381,-4.95575 5.72438,-4.95575h85.12925c2.91056,0 5.30513,2.15806 5.72438,4.95575zM37.625,62.98963l25.57425,21.63975l-25.57425,21.63706zM107.17481,45.6875l11.07519,-9.37131v9.37131zM112.42619,29.61088c1.43781,0 2.74125,0.54288 3.75713,1.41094l-17.14087,14.50444l0.13975,0.16125h-55.74681c-0.77669,0 -1.53456,0.08063 -2.26556,0.23112l-17.60581,-14.89681c1.01588,-0.86806 2.31931,-1.41362 3.75712,-1.41362h85.10506zM27.32381,105.08394c-3.21156,0 -5.82381,-2.61225 -5.82381,-5.82112v-62.94394l14.49369,12.26575c-2.279,2.04788 -3.74369,4.988 -3.74369,8.28825v48.20837h-4.92619zM43.43538,126.3125c-3.2035,0 -5.81037,-2.60688 -5.81037,-5.81037v-7.33419l0.06987,0.08331l29.66731,-25.10125l11.40575,9.65081c2.09625,1.77106 4.6655,2.65794 7.23206,2.65794c2.56656,0 5.1385,-0.88687 7.23206,-2.65794l11.40575,-9.65081l5.97163,5.0525c-7.60562,4.7945 -12.88656,12.94031 -13.72506,22.36269h-32.38437v5.375h32.38975c0.16931,1.849 0.52406,3.64156 1.01856,5.375h-54.47294zM126.3125,142.38913c-13.33538,0 -24.1875,-10.84944 -24.1875,-24.1875c0,-13.33806 10.85212,-24.1875 24.1875,-24.1875c13.33538,0 24.1875,10.84944 24.1875,24.1875c0,13.33806 -10.85212,24.1875 -24.1875,24.1875z" fill="url(#color-2_bOBxRlSTr76T_gr2)"></path><path d="M143.72481,114.39881c-0.00269,-0.00269 -0.00269,-0.00269 0,0l-8.32856,-7.94962c-1.54531,-1.47275 -3.81356,-1.87319 -5.77006,-1.04275c-1.96187,0.84119 -3.23037,2.76006 -3.23037,4.89394v5.26212h-16.125v5.375h16.125v5.25944c0,2.13388 1.2685,4.05544 3.23037,4.89394c0.67456,0.28756 1.38944,0.43 2.09625,0.43c1.34106,0 2.66331,-0.50794 3.67381,-1.47275l8.32856,-7.94962c1.04544,-0.99975 1.64744,-2.40263 1.64744,-3.85119c0,-1.44856 -0.602,-2.84875 -1.64744,-3.8485zM131.77081,126.19694l-0.086,-15.85625l8.28825,7.90931z" fill="url(#color-3_bOBxRlSTr76T_gr3)"></path><path d="M118.08606,56.35687h-64.6075c-2.51013,0 -3.64963,3.13363 -1.72806,4.74612l30.79337,25.72475c1.9995,1.66088 4.90469,1.65281 6.89344,-0.0215l30.38756,-25.71669c1.90813,-1.61787 0.76325,-4.73269 -1.73881,-4.73269z" fill="url(#color-4_bOBxRlSTr76T_gr4)"></path></g></g></svg>