<svg xmlns="http://www.w3.org/2000/svg" x="0px" y="0px"
width="64" height="64"
viewBox="0 0 172 172"
style=" fill:#000000;"><defs><linearGradient x1="56.4375" y1="105.48438" x2="56.4375" y2="115.89844" gradientUnits="userSpaceOnUse" id="color-1_49489_gr1"><stop offset="0" stop-color="#95facc"></stop><stop offset="1" stop-color="#6ec8ff"></stop></linearGradient><linearGradient x1="115.5625" y1="105.48438" x2="115.5625" y2="115.89844" gradientUnits="userSpaceOnUse" id="color-2_49489_gr2"><stop offset="0" stop-color="#95facc"></stop><stop offset="1" stop-color="#6ec8ff"></stop></linearGradient><linearGradient x1="86" y1="24.52344" x2="86" y2="35.40513" gradientUnits="userSpaceOnUse" id="color-3_49489_gr3"><stop offset="0" stop-color="#95facc"></stop><stop offset="1" stop-color="#6ec8ff"></stop></linearGradient><linearGradient x1="86" y1="20.60506" x2="86" y2="153.1875" gradientUnits="userSpaceOnUse" id="color-4_49489_gr4"><stop offset="0" stop-color="#2af598"></stop><stop offset="1" stop-color="#009efd"></stop></linearGradient><linearGradient x1="86" y1="20.60506" x2="86" y2="153.1875" gradientUnits="userSpaceOnUse" id="color-5_49489_gr5"><stop offset="0" stop-color="#2af598"></stop><stop offset="1" stop-color="#009efd"></stop></linearGradient></defs><g fill="none" fill-rule="nonzero" stroke="none" stroke-width="1" stroke-linecap="butt" stroke-linejoin="miter" stroke-miterlimit="10" stroke-dasharray="" stroke-dashoffset="0" font-family="none" font-weight="none" font-size="none" text-anchor="none" style="mix-blend-mode: normal"><path d="M0,172v-172h172v172z" fill="none"></path><g><path d="M48.375,107.5h16.125v5.375h-16.125z" fill="url(#color-1_49489_gr1)"></path><path d="M107.5,107.5h16.125v5.375h-16.125z" fill="url(#color-2_49489_gr2)"></path><path d="M75.25,26.875h21.5v5.375h-21.5z" fill="url(#color-3_49489_gr3)"></path><path d="M155.875,72.5625c0,-10.37375 -8.44144,-18.8125 -18.8125,-18.8125h-8.0625v-2.6875c0,-2.96431 -2.41069,-5.375 -5.375,-5.375h-5.375v-10.75c0,-4.44513 -3.61738,-8.0625 -8.0625,-8.0625h-8.0625v-5.375h-32.25v5.375h-8.0625c-4.44512,0 -8.0625,3.61737 -8.0625,8.0625v10.75h-5.375c-2.96431,0 -5.375,2.41069 -5.375,5.375v2.6875h-8.0625c-10.37106,0 -18.8125,8.43875 -18.8125,18.8125v29.5625h5.375v34.9375c0,7.40944 6.02806,13.4375 13.4375,13.4375h102.125c7.40944,0 13.4375,-6.02806 13.4375,-13.4375v-34.9375h5.375zM123.625,53.75h-16.125v-2.6875h16.125zM75.25,26.875h21.5v2.6875c0,1.48081 -1.204,2.6875 -2.6875,2.6875h-16.125c-1.4835,0 -2.6875,-1.20669 -2.6875,-2.6875zM59.125,34.9375c0,-1.4835 1.204,-2.6875 2.6875,-2.6875h8.557c1.11263,3.12288 4.06888,5.375 7.568,5.375h16.125c3.49912,0 6.45538,-2.25212 7.568,-5.375h8.557c1.4835,0 2.6875,1.204 2.6875,2.6875v10.75h-5.375c-2.96431,0 -5.375,2.41069 -5.375,5.375v2.6875h-32.25v-2.6875c0,-2.96431 -2.41069,-5.375 -5.375,-5.375h-5.375zM48.375,51.0625h16.125v2.6875h-16.125zM145.125,137.0625c0,4.44512 -3.61738,8.0625 -8.0625,8.0625h-102.125c-4.44513,0 -8.0625,-3.61738 -8.0625,-8.0625v-34.9375h16.125v10.75c0,2.96431 2.41069,5.375 5.375,5.375h16.125c2.96431,0 5.375,-2.41069 5.375,-5.375v-10.75h32.25v10.75c0,2.96431 2.41069,5.375 5.375,5.375h16.125c2.96431,0 5.375,-2.41069 5.375,-5.375v-10.75h16.125zM48.375,107.5h16.125v5.375h-16.125zM64.5,102.125h-16.125v-10.75h16.125zM107.5,107.5h16.125v5.375h-16.125zM123.625,102.125h-16.125v-10.75h16.125zM150.5,96.75h-21.5v-5.375c0,-2.96431 -2.41069,-5.375 -5.375,-5.375h-16.125c-2.96431,0 -5.375,2.41069 -5.375,5.375v5.375h-32.25v-5.375c0,-2.96431 -2.41069,-5.375 -5.375,-5.375h-16.125c-2.96431,0 -5.375,2.41069 -5.375,5.375v5.375h-21.5v-24.1875c0,-7.40944 6.02806,-13.4375 13.4375,-13.4375h102.125c7.40944,0 13.4375,6.02806 13.4375,13.4375z" fill="url(#color-4_49489_gr4)"></path><path d="M43,134.375h86v5.375h-86z" fill="url(#color-5_49489_gr5)"></path></g></g></svg>